<svg width="54" height="54" viewBox="0 0 54 54" fill="none" xmlns="http://www.w3.org/2000/svg">
<g clip-path="url(#clip0_226_184)">
<path fill-rule="evenodd" clip-rule="evenodd" d="M48.9997 28.9992H45.0012C43.8961 28.9992 43.001 28.1041 43.001 27C43.001 25.8959 43.8961 24.9997 45.0012 24.9997H48.9997C50.1049 24.9997 51 25.8959 51 27C51 28.1041 50.1059 28.9992 48.9997 28.9992ZM41.1438 15.6866C40.3627 16.4677 39.0945 16.4677 38.3154 15.6866C37.5343 14.9055 37.5343 13.6393 38.3154 12.8582L41.1438 10.0299C41.9229 9.24878 43.191 9.24878 43.9721 10.0299C44.7512 10.811 44.7512 12.0771 43.9721 12.8582L41.1438 15.6866ZM27.001 38.9995C20.3732 38.9995 14.9995 33.6268 14.9995 27C14.9995 20.3722 20.3722 14.9995 27.001 14.9995C33.6288 14.9995 39.0005 20.3722 39.0005 27C39.0005 33.6268 33.6288 38.9995 27.001 38.9995ZM27.001 19C22.5824 19 19 22.5814 19 27C19 31.4175 22.5834 35 27.001 35C31.4185 35 35 31.4175 35 27C35 22.5814 31.4195 19 27.001 19ZM27.001 11C25.8959 11 25.0007 10.1039 25.0007 8.99975V5.00025C25.0007 3.89611 25.8959 3 27.001 3C28.1051 3 29.0012 3.89611 29.0012 5.00025V8.99975C29.0012 10.1039 28.1041 11 27.001 11ZM12.8582 15.6866L10.0299 12.8582C9.24878 12.0771 9.24878 10.811 10.0299 10.0299C10.811 9.24878 12.0771 9.24878 12.8582 10.0299L15.6866 12.8582C16.4677 13.6393 16.4677 14.9055 15.6866 15.6866C14.9055 16.4677 13.6393 16.4677 12.8582 15.6866ZM11 27C11 28.1041 10.1039 28.9992 8.99975 28.9992H4.99925C3.89511 28.9992 3 28.1041 3 27C3 25.8959 3.89611 24.9997 4.99925 24.9997H8.99975C10.1049 24.9997 11 25.8959 11 27ZM12.8582 38.3134C13.6393 37.5333 14.9055 37.5333 15.6866 38.3134C16.4677 39.0945 16.4677 40.3617 15.6866 41.1418L12.8582 43.9701C12.0771 44.7512 10.811 44.7512 10.0299 43.9701C9.24878 43.19 9.24878 41.9229 10.0299 41.1418L12.8582 38.3134ZM27.001 43C28.1051 43 29.0012 43.8951 29.0012 44.9992V48.9997C29.0012 50.1039 28.1051 51 27.001 51C25.8959 51 25.0007 50.1039 25.0007 48.9997V44.9992C25.0007 43.8951 25.8959 43 27.001 43ZM41.1438 38.3134L43.9721 41.1418C44.7512 41.9229 44.7512 43.19 43.9721 43.9701C43.191 44.7512 41.9229 44.7512 41.1438 43.9701L38.3154 41.1418C37.5343 40.3617 37.5343 39.0945 38.3154 38.3134C39.0945 37.5323 40.3617 37.5323 41.1438 38.3134Z" fill="white"/>
</g>
<defs>
<clipPath id="clip0_226_184">
<rect width="54" height="54" fill="white"/>
</clipPath>
</defs>
</svg>
