<svg width="54" height="54" viewBox="0 0 54 54" fill="none" xmlns="http://www.w3.org/2000/svg">
<g clip-path="url(#clip0_226_210)">
<path fill-rule="evenodd" clip-rule="evenodd" d="M26.999 38.997C20.372 38.997 15 33.625 15 26.999C15 20.372 20.372 15 26.999 15C27.754 15 28.49 15.078 29.206 15.212C29.074 15.788 28.998 16.385 28.998 17C28.998 21.418 32.58 24.999 36.998 24.999C37.613 24.999 38.21 24.923 38.786 24.791C38.919 25.508 38.997 26.243 38.997 26.999C38.997 33.625 33.625 38.997 26.999 38.997ZM25.211 19.207C21.655 20.02 19 23.196 19 26.999C19 31.416 22.581 34.998 26.999 34.998C30.801 34.998 33.977 32.343 34.79 28.787C29.936 27.883 26.114 24.061 25.211 19.207Z" fill="white"/>
</g>
<defs>
<clipPath id="clip0_226_210">
<rect width="54" height="54" fill="white"/>
</clipPath>
</defs>
</svg>
