<svg width="54" height="54" viewBox="0 0 54 54" fill="none" xmlns="http://www.w3.org/2000/svg">
<path fill-rule="evenodd" clip-rule="evenodd" d="M46.815 28.115C48.183 30.064 48.994 32.433 48.994 34.998C48.994 41.623 43.623 46.996 36.996 46.996C34.221 46.996 24.195 46.996 20.998 46.996C12.162 46.996 5 39.834 5 30.998C5 22.162 12.162 15 20.998 15C23 15 24.912 15.375 26.678 16.047C28.313 11.365 32.756 8 37.996 8C38.751 8 39.487 8.078 40.203 8.212C40.072 8.787 39.996 9.385 39.996 10C39.996 14.418 43.577 17.999 47.994 17.999C48.61 17.999 49.207 17.923 49.783 17.791C49.916 18.508 49.994 19.244 49.994 19.999C49.993 23.132 48.782 25.978 46.815 28.115ZM8.999 30.998C8.999 37.625 14.37 42.996 20.997 42.996C24.613 42.996 33.976 42.996 36.995 42.996C41.413 42.996 44.994 39.414 44.994 34.998C44.994 30.58 41.413 26.998 36.995 26.998C35.395 26.998 33.912 27.48 32.661 28.289C31.43 22.973 26.688 18.999 20.997 18.999C14.37 18.999 8.999 24.371 8.999 30.998ZM36.207 12.207C33.307 12.871 31.032 15.117 30.282 17.982C32.2 19.354 33.805 21.134 34.962 23.202C35.626 23.089 36.299 22.997 36.995 22.997C39.613 22.997 42.028 23.847 44 25.268C44.858 24.289 45.485 23.1 45.786 21.786C40.933 20.882 37.111 17.063 36.207 12.207Z" fill="white"/>
</svg>
