<svg width="54" height="54" viewBox="0 0 54 54" fill="none" xmlns="http://www.w3.org/2000/svg">
<path fill-rule="evenodd" clip-rule="evenodd" d="M37.0014 41.0004C36.7353 41.0004 36.3873 41.0004 36.0012 41.0004C36.0012 39.6282 35.6822 38.258 35.0581 36.9998C35.8352 36.9998 36.5093 36.9998 37.0014 36.9998C41.42 36.9998 45.0015 33.4193 45.0015 29.0007C45.0015 24.5821 41.42 21.0006 37.0014 21.0006C35.4011 21.0006 33.9179 21.4817 32.6668 22.2908C31.4356 16.9741 26.693 13.0005 21.0012 13.0005C14.3733 13.0005 9.00154 18.3733 9.00154 25.0002C9.00154 30.954 13.3411 35.8807 19.0259 36.8238C18.3888 38.041 18.0568 39.3731 18.0138 40.7113C10.6068 39.3121 5 32.8152 5 25.0002C5 16.164 12.163 9 21.0002 9C27.005 9 32.2307 12.3125 34.9671 17.2051C35.6312 17.0911 36.3043 17.0001 37.0004 17.0001C43.6283 17.0001 49 22.3728 49 29.0007C49 35.6286 43.6293 41.0004 37.0014 41.0004ZM27.002 33.9284L30.5375 37.4639C32.4887 39.4171 32.4887 42.5826 30.5375 44.5348C28.5842 46.4881 25.4178 46.4881 23.4665 44.5348C21.5132 42.5826 21.5132 39.4171 23.4665 37.4639L27.002 33.9284Z" fill="white"/>
</svg>
