<svg width="54" height="54" viewBox="0 0 54 54" fill="none" xmlns="http://www.w3.org/2000/svg">
<path fill-rule="evenodd" clip-rule="evenodd" d="M46.4813 20.9329H43.4445C42.6062 20.9329 41.9258 20.2467 41.9258 19.3994C41.9258 18.5529 42.6062 17.8666 43.4445 17.8666H46.4813C47.3196 17.8666 48 18.5529 48 19.3994C48 20.2467 47.3204 20.9329 46.4813 20.9329ZM40.5156 10.7257C39.9226 11.3245 38.9604 11.3245 38.3681 10.7257C37.7751 10.1276 37.7751 9.15612 38.3681 8.55804L40.5156 6.38962C41.1079 5.79077 42.0701 5.79077 42.6631 6.38962C43.2554 6.9877 43.2554 7.95919 42.6631 8.55804L40.5156 10.7257ZM38.2778 22.6927C39.6059 24.2921 40.4078 26.3501 40.4078 28.6006C40.4078 32.6039 37.87 36.0015 34.3336 37.2659V33.9067C36.1477 32.8447 37.3711 30.8695 37.3711 28.6006C37.3711 25.213 34.651 22.4665 31.2969 22.4665C30.0811 22.4665 28.955 22.836 28.0057 23.4564C27.071 19.3802 23.47 16.3331 19.1484 16.3331C14.1161 16.3331 10.0367 20.4522 10.0367 25.5335C10.0367 28.2548 11.2145 30.6931 13.0742 32.3777V36.1456C9.44669 34.0232 7 30.0713 7 25.5335C7 18.7584 12.4386 13.2668 19.1484 13.2668C20.3422 13.2668 21.4941 13.4447 22.5831 13.7682C24.2499 11.6006 26.8485 10.1997 29.7781 10.1997C34.8105 10.1997 38.8891 14.3188 38.8891 19.3994C38.8883 20.561 38.6666 21.6698 38.2778 22.6927ZM29.7774 13.2668C28.0969 13.2668 26.5766 13.9553 25.477 15.0687C27.2547 16.1698 28.7317 17.7156 29.7523 19.5566C30.2565 19.4699 30.7668 19.3994 31.2961 19.3994C32.9098 19.3994 34.4232 19.828 35.7384 20.5702C35.8113 20.1915 35.8516 19.8004 35.8516 19.3994C35.8516 16.0126 33.1323 13.2668 29.7774 13.2668ZM29.7774 7.13262C28.939 7.13262 28.2586 6.44636 28.2586 5.59985V2.53354C28.2586 1.68626 28.939 1 29.7774 1C30.6157 1 31.2961 1.68626 31.2961 2.53354V5.59985C31.2961 6.44713 30.6165 7.13262 29.7774 7.13262ZM19.0398 10.7257L16.8923 8.55804C16.3 7.95919 16.3 6.9877 16.8923 6.38962C17.4854 5.79077 18.4468 5.79077 19.0398 6.38962L21.1873 8.55804C21.7804 9.15612 21.7804 10.1276 21.1873 10.7257C20.5943 11.3245 19.6329 11.3245 19.0398 10.7257ZM17.6289 28.6006C18.4673 28.6006 19.1477 29.2869 19.1477 30.1341V33.1997C19.1477 34.047 18.4673 34.7332 17.6289 34.7332C16.7906 34.7332 16.1102 34.047 16.1102 33.1997V30.1341C16.1102 29.2861 16.7906 28.6006 17.6289 28.6006ZM17.6289 37.8003C18.4673 37.8003 19.1477 38.4866 19.1477 39.3338V42.3994C19.1477 43.2467 18.4673 43.9329 17.6289 43.9329C16.7906 43.9329 16.1102 43.2467 16.1102 42.3994V39.3338C16.1102 38.4858 16.7906 37.8003 17.6289 37.8003ZM23.7031 31.6662C24.5415 31.6662 25.2219 32.3532 25.2219 33.1997V36.2668C25.2219 37.1133 24.5415 37.8003 23.7031 37.8003C22.8648 37.8003 22.1844 37.1133 22.1844 36.2668V33.1997C22.1844 32.3532 22.8648 31.6662 23.7031 31.6662ZM23.7031 40.8674C24.5415 40.8674 25.2219 41.5536 25.2219 42.3994V45.4665C25.2219 46.3137 24.5415 47 23.7031 47C22.8648 47 22.1844 46.3137 22.1844 45.4665V42.3994C22.1844 41.5529 22.8648 40.8674 23.7031 40.8674ZM29.7774 28.6006C30.6157 28.6006 31.2961 29.2869 31.2961 30.1341V33.1997C31.2961 34.047 30.6157 34.7332 29.7774 34.7332C28.939 34.7332 28.2586 34.047 28.2586 33.1997V30.1341C28.2586 29.2861 28.939 28.6006 29.7774 28.6006ZM29.7774 37.8003C30.6157 37.8003 31.2961 38.4866 31.2961 39.3338V42.3994C31.2961 43.2467 30.6157 43.9329 29.7774 43.9329C28.939 43.9329 28.2586 43.2467 28.2586 42.3994V39.3338C28.2586 38.4858 28.939 37.8003 29.7774 37.8003Z" fill="white"/>
</svg>
