<svg width="54" height="54" viewBox="0 0 54 54" fill="none" xmlns="http://www.w3.org/2000/svg">
<path d="M23.499 41.501C24.0519 41.501 24.4988 41.9484 24.499 42.499V45.5C24.4989 46.0526 24.0517 46.5 23.499 46.5C22.9477 46.4999 22.5011 46.053 22.501 45.5V42.499C22.5012 41.9475 22.9479 41.5011 23.499 41.501ZM17.5 38.5C18.0521 38.5 18.5 38.9485 18.5 39.501V42.499C18.5 43.0515 18.0521 43.5 17.5 43.5C16.9473 43.5 16.5 43.0517 16.5 42.499V39.501C16.5 38.9477 16.9471 38.5 17.5 38.5ZM29.5 38.5C30.0521 38.5 30.5 38.9484 30.5 39.501V42.499C30.5 43.0516 30.0521 43.5 29.5 43.5C28.9473 43.5 28.5 43.0517 28.5 42.499V39.501C28.5 38.9477 28.9471 38.5 29.5 38.5ZM23.499 32.5C24.0516 32.5 24.499 32.9479 24.499 33.5V36.5C24.499 37.0521 24.0516 37.5 23.499 37.5C22.9478 37.4999 22.501 37.0525 22.501 36.5V33.5C22.501 32.9476 22.9484 32.5001 23.499 32.5ZM19 14.5C23.3148 14.5 27.0713 16.88 29.0391 20.3975L29.2109 20.7051L29.5596 20.6455C30.0487 20.5623 30.5198 20.499 31 20.499C35.6946 20.499 39.4999 24.3053 39.5 29C39.5 32.4425 37.4483 35.4012 34.501 36.7354V34.4668C36.2994 33.312 37.5 31.3006 37.5 29C37.4999 25.4102 34.5902 22.5 31 22.5C29.9381 22.5 28.9415 22.7595 28.0605 23.2109C26.8684 19.331 23.2751 16.5 19 16.5C13.7529 16.5001 9.5 20.7531 9.5 26C9.50004 28.7287 10.6594 31.1792 12.499 32.9102V35.4717C9.48161 33.3984 7.50005 29.9342 7.5 26C7.5 19.6484 12.6483 14.5001 19 14.5ZM17.5 29.501C18.0521 29.501 18.4999 29.9485 18.5 30.501V33.5C18.5 34.0525 18.0521 34.5 17.5 34.5C16.9473 34.5 16.5 34.0527 16.5 33.5V30.501C16.5001 29.9478 16.9472 29.501 17.5 29.501ZM29.5 29.501C30.0521 29.501 30.4999 29.9485 30.5 30.501V33.5C30.5 34.0525 30.0521 34.5 29.5 34.5C28.9473 34.5 28.5 34.0527 28.5 33.5V30.501C28.5001 29.9478 28.9472 29.501 29.5 29.501Z" fill="white" stroke="white"/>
</svg>
