<svg width="54" height="54" viewBox="0 0 54 54" fill="none" xmlns="http://www.w3.org/2000/svg">
<path fill-rule="evenodd" clip-rule="evenodd" d="M51.9997 25.9994H48.0002C46.8961 25.9994 46 25.1043 46 23.9991C46 22.895 46.8961 21.9988 48.0002 21.9988H51.9997C53.1039 21.9988 54 22.895 54 23.9991C54 25.1053 53.1049 25.9994 51.9997 25.9994ZM44.1427 12.6856C43.3616 13.4667 42.0955 13.4667 41.3144 12.6856C40.5332 11.9055 40.5332 10.6384 41.3144 9.85728L44.1427 7.02891C44.9238 6.24881 46.19 6.24881 46.9711 7.02891C47.7522 7.81001 47.7522 9.07718 46.9711 9.85728L44.1427 12.6856ZM41.1943 28.2957C42.9426 30.3799 43.9997 33.0663 43.9997 35.9997C43.9997 42.6275 38.628 47.9992 32.0001 47.9992C31.7341 47.9992 31.3861 47.9992 31 47.9992C31 46.628 30.681 45.2569 30.0569 44.0007C30.834 44.0007 31.5081 44.0007 32.0001 44.0007C36.4187 44.0007 40.0002 40.4182 40.0002 35.9997C40.0002 31.5811 36.4187 28.0006 32.0001 28.0006C30.3989 28.0006 28.9157 28.4807 27.6656 29.2918C26.4344 23.9731 21.6918 19.9996 16.0001 19.9996C9.37221 19.9996 4.00052 25.3723 4.00052 31.9991C4.00052 33.4053 4.25455 34.7475 4.69761 35.9997H4.69261C6.12979 40.0532 9.68026 43.1046 14.0248 43.8247C13.3877 45.0398 13.0557 46.372 13.0127 47.7122C6.9159 46.56 2.04727 41.9514 0.513067 35.9997H0.524068C0.194025 34.7205 0 33.3843 0 31.9991C0 23.164 7.16293 16.0001 16.0001 16.0001C17.5723 16.0001 19.0895 16.2311 20.5237 16.6542C22.7189 13.8268 26.1414 11.9996 29.9999 11.9996C36.6277 11.9996 41.9994 17.3712 41.9994 23.9991C41.9994 25.5153 41.7074 26.9595 41.1943 28.2957ZM29.9999 16.0001C27.7866 16.0001 25.7843 16.8982 24.3372 18.3504C26.6775 19.7856 28.6227 21.8028 29.9669 24.2051C30.631 24.0921 31.3031 24.0001 32.0001 24.0001C34.1254 24.0001 36.1187 24.5592 37.8509 25.5273C37.9469 25.0332 37.9999 24.5232 37.9999 24.0001C37.9999 19.5805 34.4185 16.0001 29.9999 16.0001ZM29.9999 7.99904C28.8957 7.99904 27.9996 7.10392 27.9996 5.99878V1.99926C27.9996 0.895117 28.8957 0 29.9999 0C31.104 0 32.0001 0.895117 32.0001 1.99926V5.99878C32.0001 7.10492 31.105 7.99904 29.9999 7.99904ZM15.8571 12.6856L13.0287 9.85728C12.2476 9.07718 12.2476 7.81001 13.0287 7.02891C13.8098 6.24881 15.076 6.24881 15.8571 7.02891L18.6854 9.85728C19.4665 10.6384 19.4665 11.9055 18.6854 12.6856C17.9043 13.4667 16.6392 13.4667 15.8571 12.6856ZM21.9999 40.9293L25.5353 44.4648C27.4876 46.416 27.4876 49.5824 25.5353 51.5337C23.5831 53.4869 20.4166 53.4869 18.4644 51.5337C16.5121 49.5824 16.5121 46.416 18.4644 44.4648L21.9999 40.9293Z" fill="white"/>
</svg>
