<svg width="54" height="54" viewBox="0 0 54 54" fill="none" xmlns="http://www.w3.org/2000/svg">
<path fill-rule="evenodd" clip-rule="evenodd" d="M40.996 39.299V34.918C43.383 33.533 44.994 30.957 44.994 27.998C44.994 23.58 41.414 19.998 36.996 19.998C35.394 19.998 33.912 20.479 32.662 21.289C31.43 15.973 26.689 11.999 20.998 11.999C14.371 11.999 9 17.371 9 23.998C9 27.547 10.549 30.727 12.998 32.924V37.838C8.221 35.07 5 29.916 5 23.998C5 15.162 12.162 8 20.998 8C27.002 8 32.227 11.312 34.963 16.203C35.627 16.09 36.299 15.998 36.996 15.998C43.623 15.998 48.994 21.371 48.994 27.998C48.994 33.219 45.653 37.651 40.996 39.299ZM18.998 27.999C20.102 27.999 20.998 28.894 20.998 29.999V33.997C20.998 35.102 20.102 35.997 18.998 35.997C17.893 35.997 16.998 35.102 16.998 33.997V29.999C16.998 28.893 17.893 27.999 18.998 27.999ZM18.998 39.997C20.102 39.997 20.998 40.892 20.998 41.997V45.995C20.998 47.1 20.102 47.995 18.998 47.995C17.893 47.995 16.998 47.1 16.998 45.995V41.997C16.998 40.891 17.893 39.997 18.998 39.997ZM26.996 31.997C28.101 31.997 28.996 32.893 28.996 33.997V37.997C28.996 39.101 28.101 39.997 26.996 39.997C25.892 39.997 24.998 39.101 24.998 37.997V33.997C24.998 32.893 25.893 31.997 26.996 31.997ZM26.996 43.997C28.101 43.997 28.996 44.892 28.996 45.995V49.995C28.996 51.1 28.101 51.995 26.996 51.995C25.892 51.995 24.998 51.1 24.998 49.995V45.995C24.998 44.891 25.893 43.997 26.996 43.997ZM34.996 27.999C36.1 27.999 36.996 28.894 36.996 29.999V33.997C36.996 35.102 36.1 35.997 34.996 35.997C33.891 35.997 32.996 35.102 32.996 33.997V29.999C32.996 28.893 33.891 27.999 34.996 27.999ZM34.996 39.997C36.1 39.997 36.996 40.892 36.996 41.997V45.995C36.996 47.1 36.1 47.995 34.996 47.995C33.891 47.995 32.996 47.1 32.996 45.995V41.997C32.996 40.891 33.891 39.997 34.996 39.997Z" fill="white"/>
</svg>
