<svg width="54" height="54" viewBox="0 0 54 54" fill="none" xmlns="http://www.w3.org/2000/svg">
<path fill-rule="evenodd" clip-rule="evenodd" d="M36.995 36.998C36.715 36.998 36.346 36.998 35.933 36.998L39.518 32.586C42.699 31.529 44.995 28.533 44.995 24.998C44.995 20.58 41.414 17 36.996 17C35.395 17 33.913 17.48 32.663 18.29C31.431 12.974 26.689 9 20.998 9C14.372 9 9 14.372 9 21C9 26.446 12.632 31.038 17.604 32.504L16.255 36.281C9.735 34.26 5 28.183 5 20.999C5 12.164 12.163 5 20.998 5C27.002 5 32.227 8.312 34.963 13.204C35.627 13.09 36.3 12.999 36.996 12.999C43.623 12.999 48.995 18.37 48.995 24.997C48.995 31.624 43.622 36.998 36.995 36.998ZM24.997 22.998H34.995L28.996 32.998H35.995L22.997 48.996L26.597 36.998H19.997L24.997 22.998Z" fill="white"/>
</svg>
