<svg width="54" height="54" viewBox="0 0 54 54" fill="none" xmlns="http://www.w3.org/2000/svg">
<g clip-path="url(#clip0_226_237)">
<path fill-rule="evenodd" clip-rule="evenodd" d="M40.996 38.3V33.919C43.385 32.534 44.995 29.956 44.995 26.997C44.995 22.581 41.414 18.999 36.996 18.999C35.396 18.999 33.913 19.479 32.663 20.29C31.432 14.973 26.689 10.999 20.998 10.999C14.371 10.999 9 16.372 9 22.999C9 26.548 10.55 29.728 13 31.923V36.839C8.223 34.071 5 28.917 5 22.999C5 14.163 12.163 7 20.998 7C27.002 7 32.227 10.312 34.963 15.204C35.627 15.091 36.3 14.999 36.996 14.999C43.623 14.999 48.995 20.372 48.995 26.997C48.995 32.22 45.652 36.65 40.996 38.3ZM18.998 30.998C20.103 30.998 20.998 31.894 20.998 32.998C20.998 34.103 20.103 34.998 18.998 34.998C17.894 34.998 16.999 34.103 16.999 32.998C16.999 31.894 17.894 30.998 18.998 30.998ZM18.998 38.998C20.103 38.998 20.998 39.893 20.998 40.998C20.998 42.102 20.103 42.996 18.998 42.996C17.894 42.996 16.999 42.101 16.999 40.998C16.999 39.892 17.894 38.998 18.998 38.998ZM26.998 34.998C28.102 34.998 28.998 35.893 28.998 36.998C28.998 38.102 28.102 38.998 26.998 38.998C25.893 38.998 24.998 38.102 24.998 36.998C24.998 35.892 25.893 34.998 26.998 34.998ZM26.998 42.996C28.102 42.996 28.998 43.892 28.998 44.996C28.998 46.101 28.102 46.996 26.998 46.996C25.893 46.996 24.998 46.101 24.998 44.996C24.998 43.892 25.893 42.996 26.998 42.996ZM34.996 30.998C36.101 30.998 36.996 31.894 36.996 32.998C36.996 34.103 36.101 34.998 34.996 34.998C33.892 34.998 32.997 34.103 32.997 32.998C32.997 31.894 33.893 30.998 34.996 30.998ZM34.996 38.998C36.101 38.998 36.996 39.893 36.996 40.998C36.996 42.102 36.101 42.996 34.996 42.996C33.892 42.996 32.997 42.101 32.997 40.998C32.997 39.892 33.893 38.998 34.996 38.998Z" fill="white"/>
</g>
<defs>
<clipPath id="clip0_226_237">
<rect width="54" height="54" fill="white"/>
</clipPath>
</defs>
</svg>
