<svg width="54" height="54" viewBox="0 0 54 54" fill="none" xmlns="http://www.w3.org/2000/svg">
<path fill-rule="evenodd" clip-rule="evenodd" d="M20.998 42.996C12.163 42.996 5 35.834 5 26.998C5 18.162 12.163 11 20.998 11C27.002 11 32.227 14.312 34.963 19.203C35.627 19.09 36.301 18.998 36.996 18.998C43.623 18.998 48.995 24.371 48.995 30.998C48.995 37.623 43.623 42.996 36.996 42.996C34.221 42.996 24.196 42.996 20.998 42.996ZM36.996 38.996C41.414 38.996 44.996 35.414 44.996 30.998C44.996 26.58 41.414 22.998 36.996 22.998C35.396 22.998 33.914 23.479 32.663 24.289C31.432 18.973 26.689 14.999 20.998 14.999C14.372 14.999 9 20.371 9 26.998C9 33.624 14.372 38.996 20.998 38.996C24.615 38.996 33.977 38.996 36.996 38.996Z" fill="white"/>
</svg>
