<svg width="54" height="54" viewBox="0 0 54 54" fill="none" xmlns="http://www.w3.org/2000/svg">
<g clip-path="url(#clip0_226_227)">
<g clip-path="url(#clip1_226_227)">
<path fill-rule="evenodd" clip-rule="evenodd" d="M46.995 38.997H7C5.896 38.997 5 38.101 5 36.997C5 35.892 5.896 34.997 7 34.997H46.995C48.099 34.997 48.995 35.892 48.995 36.997C48.995 38.1 48.1 38.997 46.995 38.997ZM46.995 30.997H7C5.896 30.997 5 30.102 5 28.997C5 27.893 5.896 26.997 7 26.997H46.995C48.099 26.997 48.995 27.893 48.995 28.997C48.995 30.102 48.1 30.997 46.995 30.997ZM36.996 18.999C35.395 18.999 33.913 19.479 32.663 20.29C31.431 14.973 26.689 10.999 20.998 10.999C14.372 10.999 9 16.372 9 22.999H5C5 14.164 12.163 7 20.998 7C27.002 7 32.227 10.312 34.963 15.204C35.627 15.091 36.3 14.999 36.996 14.999C42.218 14.999 46.648 18.341 48.297 22.999H43.916C42.532 20.609 39.955 18.999 36.996 18.999ZM7 42.995H46.995C48.099 42.995 48.995 43.891 48.995 44.995C48.995 46.1 48.099 46.995 46.995 46.995H7C5.896 46.995 5 46.1 5 44.995C5 43.891 5.895 42.995 7 42.995Z" fill="white"/>
</g>
</g>
<defs>
<clipPath id="clip0_226_227">
<rect width="54" height="54" fill="white"/>
</clipPath>
<clipPath id="clip1_226_227">
<rect width="54" height="54" fill="white"/>
</clipPath>
</defs>
</svg>
