<svg width="64" height="64" viewBox="0 0 64 64" fill="none" xmlns="http://www.w3.org/2000/svg">
<rect width="64" height="64" fill="black"/>
<path d="M14.2977 45H10.9738L20.5875 18.8182H23.8602L33.4738 45H30.15L22.3261 22.9602H22.1215L14.2977 45ZM15.525 34.7727H28.9227V37.5852H15.525V34.7727ZM42.2013 45.4602C40.9569 45.4602 39.8277 45.2259 38.8135 44.7571C37.7993 44.2798 36.9939 43.5938 36.3973 42.6989C35.8007 41.7955 35.5024 40.7045 35.5024 39.4261C35.5024 38.3011 35.724 37.3892 36.1672 36.6903C36.6103 35.983 37.2027 35.429 37.9442 35.0284C38.6856 34.6278 39.5038 34.3295 40.3987 34.1335C41.3021 33.929 42.2098 33.767 43.1217 33.6477C44.3149 33.4943 45.2822 33.3793 46.0237 33.3026C46.7737 33.2173 47.3192 33.0767 47.6601 32.8807C48.0095 32.6847 48.1842 32.3437 48.1842 31.858V31.7557C48.1842 30.4943 47.839 29.5142 47.1487 28.8153C46.4669 28.1165 45.4314 27.767 44.0422 27.767C42.6018 27.767 41.4726 28.0824 40.6544 28.7131C39.8362 29.3437 39.2609 30.017 38.9285 30.733L36.0649 29.7102C36.5763 28.517 37.2581 27.5881 38.1103 26.9233C38.9711 26.25 39.9086 25.7812 40.9228 25.517C41.9456 25.2443 42.9513 25.108 43.9399 25.108C44.5706 25.108 45.295 25.1847 46.1132 25.3381C46.9399 25.483 47.7368 25.7855 48.5038 26.2457C49.2794 26.706 49.9228 27.4006 50.4342 28.3295C50.9456 29.2585 51.2013 30.5028 51.2013 32.0625V45H48.1842V42.3409H48.0308C47.8263 42.767 47.4853 43.223 47.0081 43.7088C46.5308 44.1946 45.8959 44.608 45.1032 44.9489C44.3106 45.2898 43.3433 45.4602 42.2013 45.4602ZM42.6615 42.75C43.8547 42.75 44.8603 42.5156 45.6785 42.0469C46.5052 41.5781 47.1274 40.973 47.545 40.2315C47.9711 39.4901 48.1842 38.7102 48.1842 37.892V35.1307C48.0564 35.2841 47.7751 35.4247 47.3405 35.5526C46.9143 35.6719 46.42 35.7784 45.8575 35.8722C45.3035 35.9574 44.7623 36.0341 44.2339 36.1023C43.714 36.1619 43.2922 36.2131 42.9683 36.2557C42.1842 36.358 41.4513 36.5241 40.7694 36.7543C40.0961 36.9759 39.5507 37.3125 39.1331 37.7642C38.724 38.2074 38.5194 38.8125 38.5194 39.5795C38.5194 40.6278 38.9072 41.4205 39.6828 41.9574C40.4669 42.4858 41.4598 42.75 42.6615 42.75Z" fill="white"/>
</svg>
