<?xml version="1.0" encoding="UTF-8"?>
<svg width="56px" height="38px" viewBox="0 0 56 38" version="1.1" xmlns="http://www.w3.org/2000/svg" xmlns:xlink="http://www.w3.org/1999/xlink">
    <!-- Generator: Sketch 49.3 (51167) - http://www.bohemiancoding.com/sketch -->
    <title>Glasses</title>
    <desc>Created with Sketch.</desc>
    <defs></defs>
    <g id="Page-1" stroke="none" stroke-width="1" fill="none" fill-rule="evenodd">
        <g id="Glasses" transform="translate(0.000000, -1.000000)" fill="#B0B0B8" fill-rule="nonzero">
            <path d="M55.1231,25.3679 C53.8854,26.36 53.654,29.1366 52.75,32 C51.3371,36.4756 48.89,39 42,39 C33.987,39 32.8308,36.6053 31.1875,32 C30.0648,28.8539 30.6227,25 27.9999,25 C25.3771,25 25.9352,28.8539 24.8125,32 C23.1691,36.6053 22.013,39 14,39 C7.11,39 4.6629,36.4756 3.25,32 C2.3461,29.1366 2.1147,26.3605 0.8768,25.3679 C0.349103291,24.9850363 0.0259860141,24.3814393 -2.16217865e-16,23.73 L-2.16217865e-16,21.718 C-0.00211906844,21.0005592 0.505712782,20.3827671 1.21,20.246 C5.42570759,19.436588 9.7073366,19.0194723 14,19 C23.2062,19 24.246,21 28,21 C31.754,21 32.7941,19 42,19 C46.2926614,19.0194181 50.5742923,19.4365006 54.79,20.2459 C55.4943736,20.3825221 56.0022781,21.0004026 56,21.7179 L56,23.73 C55.9740198,24.3814648 55.6508575,24.985077 55.1231,25.3679 Z M14,23 C5.1342,23 5.2594,24.4406 6.8179,30 C7.7826,33.44 8.5373,35 14,35 C20.309,35 20.0809,33.81 21.2516,30 C22.9628,24.4321 22.1081,23 14,23 Z M42,23 C33.892,23 33.0372,24.4321 34.7484,30 C35.9193,33.81 35.6909,35 42,35 C47.4628,35 48.2175,33.44 49.182,30 C50.7408,24.4406 50.8657,23 42,23 Z M53.17,18.011 C52.6344,17.9356 50.95,17.8393 50.4037,17.7624 C49.8504347,17.6789608 49.3907053,17.2922859 49.2137,16.7615 C45.8673,6.989 44.8514,0.6201 42.0674,9.2953 C41.9652077,9.62130988 41.6986171,9.86923065 41.366058,9.94752575 C41.0334988,10.0258208 40.6843032,9.92287592 40.4474,9.6767 C39.9361,9.1503 39.9606,9.1754 39.4621,8.6618 C38.9617451,8.14260307 38.8866527,7.34649904 39.2811,6.7429 C40.5787,4.7729 43.4948,0.9929 45.4882,0.9929 C48.0391,0.9929 50.3163,5.2375 53.972,17.0261 C54.0525168,17.2703078 54.0029935,17.5387133 53.840628,17.738107 C53.6782625,17.9375007 53.4254557,18.0403732 53.17,18.011 Z M15.5537,9.6767 C15.3167523,9.92310765 14.9673687,10.0262003 14.6346084,9.94789654 C14.3018481,9.86959275 14.0351005,9.62151461 13.9329,9.2953 C11.1489,0.6201 10.1329,6.989 6.787,16.7615 C6.60991553,17.2922321 6.15022586,17.6788736 5.597,17.7624 C5.0502,17.8393 3.3661,17.9356 2.8304,18.011 C2.57518253,18.0399517 2.32278793,17.9369546 2.16069408,17.7377066 C1.99860023,17.5384587 1.94911894,17.2703859 2.0294,17.0264 C5.6851,5.2378 7.9624,0.9932 10.5134,0.9932 C12.5068,0.9932 15.4227,4.7727 16.7204,6.7432 C17.1148592,7.34681219 17.0397226,8.14294406 16.5393,8.6621 C16.04,9.1754 16.0648,9.15 15.5537,9.6767 Z" id="Shape"></path>
        </g>
    </g>
</svg>