<svg width="20" height="22" viewBox="0 0 20 22" fill="none" xmlns="http://www.w3.org/2000/svg">
<g clip-path="url(#clip0_305_21)">
<path d="M10.1754 22H10.1686C6.76993 21.978 4.15718 20.8956 2.40091 18.7836C0.840549 16.9026 0.0341708 14.2868 0.00683594 11.0088V10.9934C0.0341708 7.7132 0.840549 5.0996 2.40319 3.2186C4.15718 1.1044 6.77221 0.022 10.1686 0H10.1754H10.1822C12.7882 0.0176 14.9681 0.6644 16.6606 1.9228C18.2528 3.1064 19.3736 4.7916 19.9909 6.9344L18.0547 7.4558C17.0068 3.8258 14.3554 1.9712 10.1731 1.9426C7.4123 1.9624 5.32346 2.8006 3.96583 4.433C2.69704 5.962 2.041 8.1708 2.01595 11C2.041 13.8292 2.69704 16.038 3.96811 17.567C5.32574 19.2016 7.41458 20.0398 10.1754 20.0574C12.6652 20.0398 14.3121 19.4788 15.6811 18.183C17.2437 16.7046 17.2164 14.8896 16.7153 13.7852C16.4214 13.134 15.8861 12.5928 15.164 12.1814C14.9818 13.42 14.574 14.4232 13.9453 15.18C13.1048 16.1898 11.9134 16.742 10.4055 16.8212C9.26424 16.8806 8.16401 16.621 7.31207 16.0864C6.30296 15.455 5.71299 14.4914 5.6492 13.3694C5.5877 12.2782 6.03645 11.275 6.91116 10.5446C7.74715 9.8472 8.92255 9.438 10.3121 9.361C11.3349 9.306 12.2939 9.35 13.1777 9.4908C13.0592 8.811 12.8223 8.2698 12.467 7.8804C11.9795 7.3436 11.2255 7.0708 10.2278 7.0642C10.2187 7.0642 10.2096 7.0642 10.2005 7.0642C9.39863 7.0642 8.3098 7.2776 7.61731 8.2742L5.94989 7.194C6.87927 5.8608 8.38725 5.126 10.2005 5.126C10.2141 5.126 10.2278 5.126 10.2415 5.126C13.2734 5.1436 15.0797 6.9366 15.2597 10.065C15.3622 10.1068 15.4647 10.1508 15.5649 10.1948C16.9795 10.8372 18.0137 11.8096 18.5581 13.0086C19.3144 14.6784 19.385 17.3998 17.0888 19.5712C15.3326 21.23 13.2027 21.9802 10.1822 22H10.1754ZM11.1276 11.2838C10.8975 11.2838 10.6652 11.2904 10.426 11.3036C8.68337 11.3982 7.59681 12.1704 7.65832 13.2682C7.7221 14.4188 9.03645 14.9534 10.3007 14.8874C11.4624 14.828 12.9749 14.3902 13.2301 11.4862C12.5877 11.352 11.8838 11.2838 11.1276 11.2838Z" fill="black"/>
</g>
<defs>
<clipPath id="clip0_305_21">
<rect width="20" height="22" fill="white"/>
</clipPath>
</defs>
</svg>
