<svg width="20" height="22" viewBox="0 0 20 22" fill="none" xmlns="http://www.w3.org/2000/svg">
<path d="M10.1767 22H10.1698C6.76849 21.978 4.15365 20.8956 2.39599 18.7836C0.834378 16.9026 0.0273567 14.2868 0 11.0088V10.9934C0.0273567 7.7132 0.834378 5.0996 2.39827 3.2186C4.15365 1.1044 6.77077 0.022 10.1698 0H10.1767H10.1835C12.7915 0.0176 14.9732 0.6644 16.667 1.9228C18.2606 3.1064 19.3822 4.7916 20 6.9344L18.0622 7.4558C17.0136 3.8258 14.36 1.9712 10.1744 1.9426C7.41138 1.9624 5.32087 2.8006 3.96216 4.433C2.69235 5.962 2.03579 8.1708 2.01071 11C2.03579 13.8292 2.69235 16.038 3.96444 17.567C5.32315 19.2016 7.41366 20.0398 10.1767 20.0574C12.6684 20.0398 14.3167 19.4788 15.6868 18.183C17.2507 16.7046 17.2233 14.8896 16.7218 13.7852C16.4277 13.134 15.8919 12.5928 15.1693 12.1814C14.9869 13.42 14.5788 14.4232 13.9496 15.18C13.1084 16.1898 11.9161 16.742 10.4069 16.8212C9.26479 16.8806 8.16368 16.621 7.31107 16.0864C6.30115 15.455 5.7107 14.4914 5.64687 13.3694C5.58532 12.2782 6.03442 11.275 6.90984 10.5446C7.7465 9.8472 8.92283 9.438 10.3135 9.361C11.3371 9.306 12.2968 9.35 13.1814 9.4908C13.0628 8.811 12.8257 8.2698 12.4701 7.8804C11.9822 7.3436 11.2276 7.0708 10.2291 7.0642C10.22 7.0642 10.2109 7.0642 10.2018 7.0642C9.39929 7.0642 8.30959 7.2776 7.61655 8.2742L5.9478 7.194C6.87792 5.8608 8.3871 5.126 10.2018 5.126C10.2154 5.126 10.2291 5.126 10.2428 5.126C13.2771 5.1436 15.0849 6.9366 15.265 10.065C15.3676 10.1068 15.4702 10.1508 15.5705 10.1948C16.9862 10.8372 18.0212 11.8096 18.5661 13.0086C19.3229 14.6784 19.3936 17.3998 17.0956 19.5712C15.338 21.23 13.2064 21.9802 10.1835 22H10.1767ZM11.1296 11.2838C10.8994 11.2838 10.6668 11.2904 10.4274 11.3036C8.68346 11.3982 7.59603 12.1704 7.65759 13.2682C7.72142 14.4188 9.03682 14.9534 10.3021 14.8874C11.4647 14.828 12.9785 14.3902 13.2338 11.4862C12.5909 11.352 11.8865 11.2838 11.1296 11.2838Z" fill="white"/>
</svg>
