<?xml version="1.0" encoding="UTF-8"?>
<svg width="20px" height="16px" viewBox="0 0 20 16" version="1.1" xmlns="http://www.w3.org/2000/svg" xmlns:xlink="http://www.w3.org/1999/xlink">
    <!-- Generator: Sketch 47.1 (45422) - http://www.bohemiancoding.com/sketch -->
    <title>Shape</title>
    <desc>Created with Sketch.</desc>
    <defs></defs>
    <g id="Desktop" stroke="none" stroke-width="1" fill="none" fill-rule="evenodd">
        <g id="Home-Copy-6" transform="translate(-426.000000, -4024.000000)" fill-rule="nonzero" fill="#FFFFFF">
            <path d="M443.690611,4028.50613 C443.690611,4028.33124 443.690611,4028.15714 443.678795,4027.98383 C444.469603,4027.41182 445.152242,4026.70358 445.694749,4025.89225 C444.957282,4026.21902 444.174968,4026.43332 443.37392,4026.52799 C444.217441,4026.02301 444.84876,4025.22875 445.150386,4024.29303 C444.357206,4024.7637 443.489446,4025.09541 442.584554,4025.27383 C441.332034,4023.94199 439.34179,4023.61602 437.729838,4024.4787 C436.117885,4025.34138 435.285109,4027.17818 435.698482,4028.95911 C432.449554,4028.79624 429.422534,4027.26168 427.370755,4024.73735 C426.298275,4026.58365 426.846077,4028.94561 428.621765,4030.13134 C427.978725,4030.11229 427.349704,4029.93882 426.78779,4029.62558 C426.78779,4029.64213 426.78779,4029.65946 426.78779,4029.67679 C426.788316,4031.60025 428.144169,4033.25693 430.029546,4033.6378 C429.434662,4033.80004 428.810504,4033.82375 428.205024,4033.70712 C428.734378,4035.35315 430.251367,4036.48076 431.980114,4036.51323 C430.549278,4037.63775 428.781733,4038.2482 426.961892,4038.24637 C426.640397,4038.24575 426.319216,4038.22629 426,4038.18807 C427.847868,4039.37391 429.997966,4040.00292 432.193605,4039.99999 C439.625615,4040.00314 443.690611,4033.84577 443.690611,4028.50613 Z" id="Shape"></path>
        </g>
    </g>
</svg>