<?xml version="1.0" encoding="UTF-8"?>
<svg width="52px" height="42px" viewBox="0 0 52 42" version="1.1" xmlns="http://www.w3.org/2000/svg" xmlns:xlink="http://www.w3.org/1999/xlink">
    <!-- Generator: Sketch 47.1 (45422) - http://www.bohemiancoding.com/sketch -->
    <title>Twitter_Logo_WhiteOnImage</title>
    <desc>Created with Sketch.</desc>
    <defs></defs>
    <g id="Desktop" stroke="none" stroke-width="1" fill="none" fill-rule="evenodd">
        <g id="Home" transform="translate(-144.000000, -2497.000000)" fill-rule="nonzero" fill="#FFFFFF">
            <g id="Twitter_Logo_WhiteOnImage" transform="translate(144.000000, 2497.000000)">
                <g id="Logo__x2014__FIXED" transform="translate(0.814815, 0.753086)">
                    <path d="M15.8364444,40.4144275 C34.8361481,40.4144275 45.2325926,24.8917938 45.2325926,11.4534011 C45.2325926,11.016703 45.2325926,10.5800048 45.2124444,10.1433067 C47.2272593,8.71411281 48.9801481,6.90777052 50.3703704,4.86322924 C48.5167407,5.67707577 46.5220741,6.21302348 44.4266667,6.47107238 C46.5623704,5.22052772 48.1943704,3.21568627 48.9801481,0.833696442 C46.9854815,2.00484144 44.7691852,2.83853788 42.4118519,3.29508594 C40.5179259,1.31009441 37.8382222,0.0793996611 34.8764444,0.0793996611 C29.1745185,0.0793996611 24.5404444,4.64488017 24.5404444,10.2624062 C24.5404444,11.0564028 24.6411852,11.8305495 24.8023704,12.5848463 C16.2192593,12.1679981 8.60325926,8.09876543 3.50577778,1.9452917 C2.61925926,3.45388526 2.11555556,5.2006778 2.11555556,7.06656984 C2.11555556,10.5998548 3.94903704,13.7162915 6.70933333,15.5424837 C5.01688889,15.4829339 3.42518519,15.0263859 2.03496296,14.2720891 C2.03496296,14.3117889 2.03496296,14.3514887 2.03496296,14.4110385 C2.03496296,19.3338175 5.60118519,23.4625999 10.3158519,24.3955459 C9.44948148,24.6337449 8.54281481,24.7528443 7.59585185,24.7528443 C6.93096296,24.7528443 6.28622222,24.6932946 5.66162963,24.5741951 C6.97125926,28.6235778 10.7994074,31.5613653 15.3125926,31.6407649 C11.7665185,34.3800533 7.31377778,36.0077463 2.47822222,36.0077463 C1.65214815,36.0077463 0.826074074,35.9680465 0.0201481481,35.8687969 C4.57362963,38.7271847 10.0136296,40.4144275 15.8364444,40.4144275" id="Shape"></path>
                </g>
            </g>
        </g>
    </g>
</svg>